<svg width="24" height="24" viewBox="0 0 24 24" fill="none" xmlns="http://www.w3.org/2000/svg">
<g clip-path="url(#clip0_604_298)">
<path d="M2.2457 0.107825C2.10508 0.201575 1.96914 0.464075 1.11602 2.32032C0.581641 3.48282 0.112891 4.55626 0.0707031 4.71095C-0.0183594 5.0672 -0.0183594 5.80314 0.0707031 6.16407C0.286328 7.02189 0.942578 7.79064 1.7582 8.1422C2.2082 8.33907 2.3582 8.3672 2.95352 8.3672C3.42695 8.3672 3.60039 8.34845 3.86758 8.26407C4.24727 8.1422 4.6832 7.88907 4.99727 7.60782L5.21289 7.41095L5.51758 7.67345C6.66602 8.64376 8.37227 8.62501 9.48789 7.63126L9.75039 7.39689L10.0363 7.6547C11.1191 8.63439 12.8816 8.63439 13.9645 7.6547L14.2504 7.39689L14.5129 7.63595C14.7988 7.88907 15.2441 8.13751 15.6566 8.27814C16.0457 8.40939 16.9738 8.4047 17.4145 8.26407C17.7895 8.14689 18.2254 7.89845 18.5582 7.60782L18.7879 7.41095L19.0035 7.60782C19.3176 7.88907 19.7535 8.1422 20.1332 8.26407C20.5316 8.39064 21.4363 8.40939 21.8207 8.30157C22.8379 8.02032 23.6816 7.15782 23.9348 6.14064C24.0473 5.68595 24.0051 4.86095 23.8504 4.45314C23.6488 3.93751 22.0785 0.370325 22.0082 0.2672C21.9707 0.215638 21.8816 0.13595 21.8113 0.0890751C21.6848 0.00470066 21.3379 1.23978e-05 12.0426 1.23978e-05H2.40508L2.2457 0.107825ZM21.4129 2.51251C21.6754 3.12189 21.8863 3.63282 21.877 3.63751C21.8676 3.64689 17.4191 3.65158 11.991 3.64689L2.11914 3.63282L2.59727 2.59689C2.86445 2.0297 3.09414 1.52814 3.1082 1.48595C3.13633 1.41095 3.80195 1.40626 12.0379 1.40626H20.9348L21.4129 2.51251ZM4.48633 5.46564C4.45352 5.92032 4.29414 6.24845 3.98008 6.53439C3.23945 7.20001 2.0957 7.00782 1.61758 6.13595C1.50977 5.9297 1.47695 5.81251 1.46289 5.49845L1.43945 5.10939H2.97695H4.51445L4.48633 5.46564ZM9.00039 5.4047C9.00039 5.99064 8.71914 6.45939 8.20352 6.74532C7.91758 6.9047 7.87539 6.91407 7.47695 6.91407C7.11133 6.91407 7.02227 6.89532 6.8207 6.78751C6.2957 6.51095 6.00039 6.05626 5.96289 5.47032L5.93945 5.10939H7.47227H9.00039V5.4047ZM13.5332 5.43751C13.4816 6.06095 13.1395 6.57189 12.6191 6.81095C12.3098 6.95626 11.691 6.95626 11.3816 6.81095C10.8613 6.57189 10.5191 6.06095 10.4676 5.43751L10.4395 5.10939H12.0004H13.5613L13.5332 5.43751ZM18.0379 5.47032C18.0004 6.07032 17.691 6.53907 17.1566 6.7922C16.941 6.89532 16.8332 6.91407 16.5004 6.91407C16.1301 6.91407 16.0785 6.90001 15.7973 6.74532C15.2816 6.45939 15.0004 5.99064 15.0004 5.4047V5.10939H16.5285H18.0613L18.0379 5.47032ZM22.5379 5.49845C22.5238 5.81251 22.491 5.9297 22.3832 6.13595C22.0223 6.7922 21.2066 7.10626 20.5223 6.84376C19.941 6.62814 19.5613 6.10782 19.5145 5.46564L19.4863 5.10939H21.0238H22.5613L22.5379 5.49845Z" fill="#112323"/>
<path d="M0.389063 12.8906C0.1125 13.0125 0 13.2141 0 13.5703C0 13.7297 0.117188 15.225 0.2625 16.8985C0.403125 18.5766 0.520313 20.0719 0.520313 20.2266C0.520313 20.6953 0.735938 21.0047 1.125 21.0891L1.24688 21.1172L0.904688 22.0781C0.4875 23.2453 0.478125 23.311 0.6 23.5922C0.740625 23.9063 0.928125 24.0094 1.30781 23.986C1.57969 23.9719 1.61719 23.9578 1.75313 23.8078C1.85625 23.7 1.96406 23.475 2.08594 23.1328C2.18438 22.8469 2.38594 22.2797 2.53125 21.8672L2.79844 21.1172L3.84844 21.1031L4.89844 21.0938L5.33906 22.3453C5.57812 23.0391 5.80781 23.6485 5.84531 23.7094C6.02813 24.0047 6.54375 24.0985 6.84844 23.8922C7.03594 23.7703 7.17188 23.5219 7.17188 23.311C7.17188 23.2266 7.0125 22.7063 6.82031 22.1485C6.62813 21.5953 6.46875 21.1313 6.46875 21.1172C6.46875 21.1031 6.64219 21.0938 6.84844 21.0938C7.15313 21.0938 7.26563 21.075 7.41094 20.9906C7.79063 20.7797 7.88438 20.2453 7.60313 19.9172C7.36875 19.636 7.41563 19.6406 4.575 19.6406H1.96875L1.95 19.5328C1.93594 19.4766 1.80938 18.0516 1.66875 16.3688C1.38281 12.961 1.41094 13.0922 1.03125 12.9C0.778125 12.7735 0.646875 12.7735 0.389063 12.8906Z" fill="#112323"/>
<path d="M22.9695 12.9C22.5898 13.0922 22.6179 12.9609 22.332 16.3687C22.1914 18.0516 22.0648 19.4766 22.0507 19.5375L22.032 19.6406H19.4257C16.5851 19.6406 16.632 19.6359 16.3976 19.9172C16.1164 20.2453 16.2101 20.7797 16.5898 20.9906C16.7351 21.075 16.8476 21.0938 17.1523 21.0938C17.3586 21.0938 17.532 21.1031 17.532 21.1172C17.532 21.1312 17.3726 21.6 17.1804 22.1531C16.9882 22.7062 16.8289 23.2312 16.8289 23.3109C16.8289 23.6906 17.1476 24 17.5414 24C17.8086 24 18.0054 23.9109 18.132 23.7328C18.1789 23.6578 18.4179 23.0391 18.6617 22.3453L19.1023 21.0938L20.1523 21.1031L21.2023 21.1172L21.4695 21.8672C21.6148 22.2797 21.8164 22.8469 21.9148 23.1328C22.0367 23.475 22.1445 23.7 22.2476 23.8078C22.3836 23.9578 22.4211 23.9719 22.6929 23.9859C23.0726 24.0094 23.2601 23.9062 23.4007 23.5922C23.5226 23.3109 23.5132 23.25 23.0914 22.0641C22.782 21.1828 22.7586 21.0938 22.8429 21.0938C22.8898 21.0938 23.0164 21.0469 23.1148 20.9906C23.3539 20.8547 23.4804 20.5969 23.4804 20.2266C23.4804 20.0719 23.5976 18.5766 23.7382 16.8984C23.8836 15.225 24.0007 13.7297 24.0007 13.5703C24.0007 13.2141 23.8882 13.0125 23.6117 12.8906C23.3539 12.7734 23.2226 12.7734 22.9695 12.9Z" fill="#112323"/>
<path d="M5.89348 14.1985L5.6966 14.386L5.68254 16.036C5.67316 17.1703 5.68723 17.7282 5.72004 17.8172C5.74816 17.8875 5.83723 18.0047 5.91223 18.075L6.05285 18.211L8.04504 18.225L10.0325 18.2391V20.8641C10.0325 23.7047 10.0232 23.611 10.2904 23.8594L10.4169 23.9766L12.1044 23.9907C13.7544 24.0047 13.7919 24 13.9513 23.9016C14.2841 23.6953 14.2747 23.8078 14.2888 20.8688L14.3028 18.2344H16.2294C18.0997 18.2344 18.1607 18.2297 18.3153 18.136C18.6341 17.9391 18.6341 17.925 18.6341 16.125C18.6341 14.325 18.6294 14.2969 18.3153 14.1094C18.17 14.0203 18.0341 14.0157 12.1279 14.0157H6.09035L5.89348 14.1985ZM17.2044 16.125V16.8282H12.1654H7.12629V16.125V15.4219H12.1654H17.2044V16.125ZM12.845 20.4141V22.5938H12.1654H11.4857V20.4141V18.2344H12.1654H12.845V20.4141Z" fill="#112323"/>
</g>
<defs>
<clipPath id="clip0_604_298">
<rect width="24" height="24" fill="white"/>
</clipPath>
</defs>
</svg>
