<svg width="24" height="24" viewBox="0 0 24 24" fill="none" xmlns="http://www.w3.org/2000/svg">
<path d="M10.2891 1.575C6.49688 2.02969 3.58594 3.81094 2.22656 6.51094C1.77656 7.41094 1.5 8.55 1.5 9.50625C1.5 10.0734 1.56094 10.2375 1.8375 10.4063C1.99219 10.5 2.09531 10.5 12.0047 10.5H22.0172L22.1719 10.3969C22.4859 10.1813 22.5234 10.0828 22.5094 9.50625C22.425 6.24844 20.1984 3.50156 16.6172 2.23594C15.6797 1.90313 14.7422 1.69688 13.6172 1.57031C12.8625 1.48594 11.0109 1.48594 10.2891 1.575ZM13.9219 3.15938C17.3297 3.69844 19.8141 5.44688 20.6531 7.89375C20.7656 8.21719 20.9062 8.79375 20.9062 8.93438C20.9062 8.99063 19.7063 9 12 9C4.29375 9 3.09375 8.99063 3.09375 8.93438C3.09375 8.79375 3.23438 8.21719 3.34688 7.89375C3.99375 5.99531 5.68594 4.46719 8.025 3.66563C8.85 3.37969 9.6375 3.21094 10.7812 3.075C11.2031 3.02813 13.4484 3.08438 13.9219 3.15938Z" fill="#112323"/>
<path d="M1.64063 11.3391C0.614063 11.6719 0 12.4828 0 13.5C0 14.4562 0.553125 15.2391 1.49531 15.6187L1.75781 15.7266H12H22.2422L22.5047 15.6187C23.4469 15.2391 24 14.4562 24 13.5C24 12.5437 23.4469 11.7609 22.5047 11.3812L22.2422 11.2734L12.0703 11.2641C2.43281 11.2547 1.88438 11.2594 1.64063 11.3391ZM22.0547 12.8812C22.5891 13.1859 22.5891 13.8141 22.0547 14.1187L21.8672 14.2266H12H2.13281L1.94531 14.1187C1.30781 13.7531 1.46719 12.9375 2.20312 12.7922C2.29219 12.7734 6.75469 12.7641 12.1172 12.7687L21.8672 12.7734L22.0547 12.8812Z" fill="#112323"/>
<path d="M1.8375 16.5938C1.75313 16.6453 1.64531 16.7531 1.59375 16.8375C1.50469 16.9828 1.5 17.0766 1.5 18.4219C1.5 19.5328 1.51875 19.9172 1.57031 20.1516C1.82812 21.2437 2.75625 22.1719 3.84844 22.4297C4.11094 22.4906 5.15625 22.5 11.9859 22.5C17.4375 22.5 19.8984 22.4859 20.0719 22.4484C20.2078 22.4203 20.5219 22.3031 20.7656 22.1859C21.1359 22.0078 21.2766 21.9094 21.5906 21.5906C21.9094 21.2766 22.0078 21.1359 22.1859 20.7656C22.3031 20.5219 22.4203 20.2078 22.4484 20.0719C22.4813 19.9266 22.5 19.2422 22.5 18.4078C22.5 17.0766 22.4953 16.9828 22.4062 16.8375C22.3547 16.7531 22.2469 16.6453 22.1625 16.5938C22.0078 16.5 21.9047 16.5 12 16.5C2.09531 16.5 1.99219 16.5 1.8375 16.5938ZM20.9906 18.8297C20.9672 19.5516 20.9484 19.7016 20.8594 19.9453C20.7141 20.325 20.3297 20.7094 19.9453 20.8641L19.6641 20.9766L12.2109 20.9906C7.16719 21 4.65469 20.9859 4.43906 20.9531C3.67969 20.8359 3.16875 20.3344 3.04688 19.5891C3.02344 19.425 3 18.9984 3 18.6422V18H12.0047H21.0141L20.9906 18.8297Z" fill="#112323"/>
</svg>
