<svg width="24" height="24" viewBox="0 0 24 24" fill="none" xmlns="http://www.w3.org/2000/svg">
<g clip-path="url(#clip0_603_286)">
<path d="M7.10325 0.0703259C6.42825 0.257826 5.80481 0.764076 5.50481 1.37345C5.33606 1.71564 5.20012 2.22658 5.20012 2.53126C5.20012 2.91095 5.51419 3.23439 5.88919 3.23439C6.30169 3.23439 6.53606 3.00001 6.58762 2.55001C6.64856 2.02033 6.84544 1.71564 7.27669 1.50001C7.59544 1.34064 7.83919 1.32189 8.15794 1.4297C8.44856 1.52814 8.697 1.74376 8.847 2.03439L8.97356 2.27345L8.98762 9.03283L8.997 15.7922L8.56575 15.9328C7.21106 16.3641 6.12356 16.2938 4.69856 15.6844C3.62981 15.2297 2.98762 15.0891 1.91887 15.0891C1.197 15.0891 0.578248 15.1734 0.32981 15.3C0.0907478 15.4266 -0.0123772 15.6328 0.0110603 15.9516C0.0251228 16.1672 0.0532478 16.2469 0.16106 16.3594C0.376685 16.5844 0.564185 16.6172 1.07512 16.5281C1.62356 16.4344 2.2095 16.4344 2.74387 16.5234C3.25012 16.6125 3.60169 16.725 4.30012 17.025C5.30794 17.4563 6.10012 17.6016 7.20637 17.5641C8.21419 17.5266 8.79075 17.3906 9.83137 16.9359C10.0986 16.8234 10.5204 16.6734 10.7689 16.6078C11.172 16.4953 11.3126 16.4813 11.997 16.4813C12.6814 16.4813 12.822 16.4953 13.2251 16.6078C13.4736 16.6734 13.8954 16.8234 14.1626 16.9359C15.1376 17.3625 15.7611 17.5125 16.7079 17.5594C17.8095 17.6156 18.6814 17.4516 19.7736 16.9922C20.7251 16.5891 21.1564 16.4859 21.9814 16.4813C22.3751 16.4766 22.8111 16.5047 23.0173 16.5422C23.4392 16.6172 23.6267 16.575 23.8329 16.3594C23.9407 16.2469 23.9689 16.1672 23.9829 15.9516C24.0064 15.6328 23.9032 15.4266 23.6642 15.3C23.4251 15.1781 22.7642 15.0938 22.047 15.0938C21.0157 15.0938 20.3126 15.2438 19.3001 15.6797L18.8173 15.8859L18.7939 8.98595L18.7704 2.08595L18.6673 1.77658C18.4095 1.02189 17.8048 0.393763 17.0736 0.131264C16.7407 0.00938797 16.0189 -0.0327988 15.6392 0.0468884C14.9267 0.192202 14.2189 0.750013 13.9048 1.40626C13.7079 1.82345 13.6189 2.24064 13.647 2.60158C13.6657 2.83126 13.6939 2.8922 13.8439 3.03751C14.0032 3.20158 14.0314 3.21095 14.3173 3.21095C14.6032 3.21095 14.6314 3.20158 14.7861 3.0422C14.9314 2.90158 14.9595 2.83126 15.0017 2.55001C15.0579 2.13751 15.1892 1.87033 15.4282 1.66408C15.7986 1.35001 16.3048 1.2797 16.722 1.49533C16.9611 1.6172 17.2611 1.95939 17.3314 2.19376C17.3689 2.32033 17.3876 2.8922 17.3876 4.00314V5.62501H13.8767H10.3611L10.347 3.80626C10.3329 1.99689 10.3329 1.9922 10.2111 1.68751C9.90169 0.876575 9.25012 0.276575 8.45794 0.0703259C8.12044 -0.0140495 7.422 -0.0140495 7.10325 0.0703259ZM17.3876 9.00001V11.0156H13.872H10.3564V9.00001V6.98439H13.872H17.3876V9.00001ZM17.3876 14.2969V16.1719H16.9142C16.3001 16.1719 15.6486 16.0359 15.0579 15.7922C13.7689 15.2484 13.047 15.0844 11.9736 15.0891C11.397 15.0891 10.6704 15.1734 10.4314 15.2625C10.3611 15.2906 10.3564 15.1641 10.3564 13.8563V12.4219H13.872H17.3876V14.2969Z" fill="#112323"/>
<path d="M1.17656 18.3281C0.510938 18.4219 0.360938 18.4734 0.178125 18.6562C0.0140625 18.8156 0 18.8578 0 19.0828C0 19.6781 0.360938 19.8844 1.12031 19.7391C1.48594 19.6641 2.41406 19.6781 2.84531 19.7578C3.27656 19.8375 3.70781 19.9828 4.24219 20.2172C5.34375 20.7 6.40313 20.8828 7.5375 20.775C8.36719 20.7 8.90156 20.5547 9.82031 20.1562C10.7156 19.7672 11.5641 19.6172 12.4406 19.6922C13.0172 19.7391 13.5281 19.8797 14.1938 20.1609C15.2719 20.6203 15.9891 20.775 17.0391 20.775C18.0844 20.775 18.8109 20.6203 19.8891 20.1609C20.8219 19.7625 21.6047 19.6219 22.4391 19.6969C22.6406 19.7109 22.9641 19.7437 23.1562 19.7625C23.4422 19.7859 23.5406 19.7766 23.6625 19.7156C23.8781 19.6031 24 19.3828 24 19.1109C24 18.5484 23.6297 18.3656 22.3594 18.2953C21.4266 18.2484 20.475 18.4125 19.5938 18.7781C18.2953 19.3172 17.7656 19.4344 16.8047 19.3922C16.0641 19.3594 15.6281 19.2562 14.8031 18.9094C13.6922 18.4406 13.0641 18.3047 12 18.3047C10.9266 18.3047 10.3172 18.4359 9.20156 18.9141C8.18438 19.3406 7.44375 19.4766 6.53906 19.4016C5.93438 19.35 5.44219 19.2187 4.73438 18.9141C4.05938 18.6281 3.675 18.5016 3.13125 18.3984C2.66719 18.3094 1.59844 18.2719 1.17656 18.3281Z" fill="#112323"/>
<path d="M0.865766 21.586C0.659516 21.6235 0.420453 21.6891 0.336078 21.7266C-0.127984 21.9422 -0.113922 22.7203 0.359516 22.9453C0.537641 23.0297 0.626703 23.0297 1.33452 22.9219C2.18764 22.7906 3.14389 22.9547 4.19858 23.4094C5.29545 23.8781 6.05952 24.0235 7.23139 23.986C8.1642 23.9578 8.73608 23.8266 9.75795 23.3953C10.7611 22.9781 11.1033 22.9031 12.022 22.9031C12.9126 22.9078 13.3205 22.9969 14.2486 23.3906C15.4251 23.8875 16.1236 24.0235 17.2908 23.986C18.2423 23.9578 18.8423 23.8172 19.7892 23.4141C20.9423 22.9172 21.7955 22.786 22.8736 22.9453L23.4501 23.0344L23.6423 22.9266C23.8908 22.7953 23.9986 22.6172 23.9986 22.3266C23.9986 21.7453 23.647 21.5766 22.3298 21.5297C21.1767 21.4875 20.4173 21.6328 19.3626 22.0828C18.6408 22.3922 18.1533 22.5328 17.5345 22.5985C16.6345 22.6969 15.7533 22.5422 14.7455 22.1016C13.8173 21.6985 12.9642 21.5156 11.9986 21.5156C11.0001 21.5156 10.297 21.6703 9.20014 22.1297C8.22983 22.5375 7.87358 22.6125 6.95952 22.6125C6.05483 22.6172 5.67514 22.5328 4.77983 22.1531C3.62202 21.6563 3.20952 21.5625 2.08452 21.5391C1.47045 21.525 1.13764 21.5391 0.865766 21.586Z" fill="#112323"/>
</g>
<defs>
<clipPath id="clip0_603_286">
<rect width="24" height="24" fill="white"/>
</clipPath>
</defs>
</svg>
